<?xml version="1.0" encoding="utf-8"?>
<!-- Generator: Adobe Illustrator 22.0.0, SVG Export Plug-In . SVG Version: 6.00 Build 0)  -->
<svg version="1.1" id="Layer_1" xmlns="http://www.w3.org/2000/svg" xmlns:xlink="http://www.w3.org/1999/xlink" x="0px" y="0px"
	 viewBox="0 0 400 400" style="enable-background:new 0 0 400 400;" xml:space="preserve">
<style type="text/css">
	.st0{fill:#EFE8BD;}
	.st1{opacity:0.1;}
	.st2{fill:#FFFFFF;}
	.st3{fill:#F2DCD3;}
	.st4{fill:#779831;}
	.st5{fill:#547231;}
	.st6{fill:#9EBD48;}
	.st7{fill:#ED2C24;}
	.st8{fill:#BF2226;}
	.st9{fill:#FFFAF1;}
	.st10{fill:#FFC942;}
	.st11{opacity:0.1;fill:#606060;}
	.st12{fill:#FEFEFE;}
	.st13{fill:#FFE330;}
	.st14{fill:#FAF5CB;}
	.st15{fill:#FFDA56;}
	.st16{fill:#FFE9B3;}
	.st17{fill:#E37B13;}
	.st18{fill:#FFF8E6;}
	.st19{fill:#FFC61B;}
	.st20{fill:#D7E7B3;}
</style>
<circle class="st0" cx="-219.5" cy="200.1" r="191.5"/>
<g>
	<g>
		<g class="st1">
			<ellipse transform="matrix(0.7071 -0.7071 0.7071 0.7071 -214.2795 -93.094)" cx="-219.5" cy="212.1" rx="159.3" ry="159.3"/>
		</g>
		<g>
			
				<ellipse transform="matrix(0.7071 -0.7071 0.7071 0.7071 -202.5355 -97.9585)" class="st2" cx="-219.5" cy="195.5" rx="159.3" ry="159.3"/>
		</g>
		<g>
			
				<ellipse transform="matrix(0.7071 -0.7071 0.7071 0.7071 -202.5355 -97.9585)" class="st3" cx="-219.5" cy="195.5" rx="142.7" ry="142.7"/>
		</g>
		<g>
			<g>
				<path class="st2" d="M-219.5,329.7c-74,0-134.2-60.2-134.2-134.2c0-31.7,11.3-62.5,31.7-86.7c0.9-1.1,2.5-1.2,3.6-0.3
					c1.1,0.9,1.2,2.5,0.3,3.6c-19.7,23.3-30.5,52.9-30.5,83.4c0,71.2,58,129.2,129.2,129.2c26.9,0,52.6-8.2,74.5-23.6
					c1.1-0.8,2.7-0.5,3.5,0.6c0.8,1.1,0.5,2.7-0.6,3.5C-164.8,321.2-191.6,329.7-219.5,329.7z"/>
			</g>
			<g>
				<path class="st2" d="M-113.5,276.2c-0.5,0-1-0.2-1.5-0.5c-1.1-0.8-1.4-2.4-0.5-3.5c16.5-22.3,25.2-48.8,25.2-76.7
					c0-71.2-58-129.2-129.2-129.2c-28.3,0-55.3,9-77.8,26c-1.1,0.8-2.7,0.6-3.5-0.5c-0.8-1.1-0.6-2.7,0.5-3.5
					c23.4-17.7,51.4-27.1,80.9-27.1c74,0,134.2,60.2,134.2,134.2c0,28.9-9.1,56.5-26.2,79.7C-112,275.9-112.7,276.2-113.5,276.2z"/>
			</g>
		</g>
	</g>
	<g>
		<g>
			<g>
				<g>
					<path class="st4" d="M-267.3,271.6c5.5,0.1,10.7,6.5,15.5,3.8c3-1.7,3.6-6.3,6.8-7.7c5.4-2.3,9.9,6.8,15.7,5.8
						c2.8-0.5,4.5-3.1,6-5.5c5.3-8.8,7.8-18,13.1-26.8c-2.1,5.9,2.7,9.9,2.3,19c-0.3,6.2-0.4,13.3-5.2,17.3c-1.9,1.5-4.2,2.5-6,4.2
						c-4,3.9-3.5,10.4-3.4,16s-1.4,12.5-6.8,14.2c-7.8,2.4-14.1-8.6-22.2-8.5c-6.3,0.1-10.6,6.7-16.7,8.6c-6,1.8-12.3-1.4-17.8-4.5
						c-8.3-4.7-24.4-18.3-5.7-20.9c6.4-0.9,9.4-1.6,13.7-6.8C-275.2,276.5-272.4,271.5-267.3,271.6z"/>
				</g>
				<g>
					<path class="st5" d="M-344.9,200.3c1.6,5.8,5.3,10.9,6.8,16.7c1.7,6.7,0.3,13.9,0.7,20.8c0.6,9.8,5.2,19.3,12.6,25.8
						c3.1,2.8,7.3,5.2,11.4,4.2c2-0.5,3.8-1.7,5.8-2.2c5.6-1.3,10.7,3.9,13.1,9.1c2.4,5.3,3.6,11.3,7.6,15.4
						c2.9,2.9,8.2,4.2,10.9,1.1c1.4-1.7,1.8-4.3,3.7-5.4c4.8-2.8,9.8,7.6,14.7,5c3.7-2,1.3-8.1,3.8-11.4c1.8-2.3,5.5-2.1,8.1-0.9
						c2.7,1.2,4.9,3.3,7.6,4.4c15.3,5.9,13.3-16.1,21.4-22.4c2.2-1.7,4.8-3,6.5-5.2c2.4-3.4,2-7.9,2.2-12c0.3-8.6,3.4-17.1,8.7-23.9
						c-5.8,3.3-11.7,6.7-18.1,8.6c-6.4,1.9-13.5,2.3-19.7-0.3c-11-4.6-16.9-17.4-27.9-21.9c-6-2.4-13-2.2-18.2-6
						c-4.9-3.6-7-9.9-11.5-13.9c-4.2-3.7-10-5-15.5-6.1c-5.1-1.1-10.4-2.1-15.6-1.6C-336,179.4-348,188.9-344.9,200.3z"/>
				</g>
				<g>
					<path class="st4" d="M-236.4,222.4c-10.1-3.5-19.3-9.5-29.7-11.5c-6.3-1.2-13.2-1.1-18.7-4.4c-6.4-3.9-9.6-11.8-16.3-15.2
						c-5.1-2.5-11.2-1.9-16.4-4.3c-3.6-1.6-6.4-4.5-9.3-7.1c-2.9-2.6-6.2-5.2-10.1-5.7c-3.9-0.6-8.4,1.5-9.3,5.3
						c-1.1,4.6,3.2,8.6,4.9,13.1c3.8,9.8-5.4,21.4-1.1,31c2.7,6.1,10,9.1,12.6,15.3c1.4,3.3,1.2,7.1,2.2,10.6
						c1.1,3.5,4.4,6.8,7.9,5.8c4.9-1.5,4.2-9.2,8.2-12.3c3.2-2.5,7.8-1,11.4,0.7c3.6,1.7,7.9,3.7,11.5,1.9c2.8-1.4,4.2-4.5,6.9-6.1
						c5-2.9,11.1,0.9,15.5,4.6c4.5,3.7,10.7,7.4,15.6,4.4c3.1-2,4.2-6,7.1-8.3c4.4-3.6,10.8-1.9,16.4-2c6.9-0.1,13.4-3.3,18.7-7.6
						c5.1-4.1,10.1-9.5,13.7-14.9c-7.6-0.5-11.3,4.6-17.6,7.4C-219.9,226.1-229,224.9-236.4,222.4z"/>
				</g>
				<g>
					<path class="st6" d="M-209,272.5c-3.5,6.2-8.8,11.4-10.6,18.2c-1.2,4.5-0.7,9.2-1.5,13.7c-0.7,4.5-3.2,9.4-7.6,10.6
						c-6.9,2-12.8-5.4-19.8-7.1c-6.7-1.6-13.3,2.1-19.7,4.6c-6.4,2.5-15,3.1-18.8-2.6c-0.6-0.9-1-1.9-0.9-2.9
						c0.4-2.6,4.1-3.3,6.5-2.2c2.4,1.1,4.3,3.3,6.8,4.1c8.7,3,15.6-10.5,24.7-9.4c3.7,0.4,6.7,3.2,10.2,4.3c3.5,1.2,8.7-0.9,8.1-4.5
						c-1-5.8-12.8-2.4-14.4-8.1c2.1-2.6,6.2-0.8,8.9,1.2c2.7,2,6.6,3.9,8.9,1.5c1.5-1.6,1.2-4,1.4-6.2c0.4-4.5,3.6-8.3,7-11.4
						c3.4-3.1,7.2-5.8,9.5-9.7c2.3-3.9,2.4-10.2,1.5-13.8C-204.7,257.2-206.4,267.9-209,272.5z"/>
				</g>
				<g>
					<path class="st6" d="M-245.9,250.1c-3.4,2.5-6.9,5.3-11.1,5.3c-8.6,0.2-14.8-11.3-23.3-9.7c-6.3,1.1-11.2,9.2-17.1,7
						c-4.2-1.6-6.4-7.9-10.9-7.3c-5.3,0.7-4.6,9.4-9,12.3c-3.8,2.5-9.1-0.8-10.6-5.1c-1.5-4.3-0.6-9-0.5-13.5
						c0.2-8.7-2.7-17.4-8-24.2c5.1,1,9.4,5.4,10.4,10.5c0.8,4.1-0.4,8.4,0.4,12.4c0.8,4.1,5.2,8.1,8.8,6c2.5-1.4,3-4.8,5.1-6.7
						c3.2-2.9,8.3-1.3,12,0.9c3.7,2.3,7.5,5.2,11.8,4.5c5.7-0.9,9.2-8,15-8.4c7.8-0.5,13.5,11.4,20.8,8.6c3.3-1.2,4.8-4.9,7.5-7.2
						c5.6-4.1,11-2.6,17.2-1.7c7.1,1,12-1.8,18.9-3.6C-221.3,238.4-233.6,241.1-245.9,250.1z"/>
				</g>
				<g>
					<path class="st4" d="M-281.4,266.4c3.4-1.1,6.5-3.7,10.1-3.1c3,0.4,5.1,3,7.9,4c5.3,2,11-1.7,15-5.7c4-4,7.9-8.8,13.4-9.9
						c2.7-0.5,5.5-0.1,8.2,0.3c2.7,0.4,5.6,0.6,8.2-0.3c2.6-0.9,4.9-3.3,4.8-6c0.4,5.1-3.2,10.1-8,11.6c-4,1.2-8.6,0.1-12.5,1.7
						c-5.3,2.3-7.3,8.7-11.5,12.8c-4.5,4.5-11.9,5.8-17.6,3.1c-3.5-1.6-6.9-4.6-10.6-3.6c-2.9,0.7-4.7,3.6-7.5,4.6
						c-3,1.1-6.5-0.5-8.6-2.9c-1.2-1.4-4.7-6-1.8-7.4c0.9-0.4,3.5,1.1,4.6,1.3C-285.4,267.1-283.3,267-281.4,266.4z"/>
				</g>
				<g>
					<path class="st5" d="M-301.7,198.8c3.7,3.2,5.2,8.5,9.1,11.5c7.2,5.6,18.2,0.6,26.8,4c4,1.6,7,4.9,10.3,7.6
						c3.3,2.7,7.6,5,11.7,4c-3,4.3-9.7,3.6-14.4,1.1c-4.7-2.4-9-6.1-14.2-6.4c-4.2-0.2-8.2,1.9-12.3,3.1c-4.1,1.2-9.2,1.2-11.8-2.1
						c-2-2.5-2.1-6.4-4.6-8.3c-4.8-3.6-12.7,3.2-17.2-0.8c-2.5-2.2-1.3-5-2.3-7.6c-1.4-3.5-4.9-5.6-7.9-7.6
						c-3.2-2.2-6.5-5.4-6.4-9.3c0-1.3,0.6-2.8,1.9-3.3c1.9-0.6,3.6,1.4,4.8,3C-321,197.3-309.9,191.8-301.7,198.8z"/>
				</g>
			</g>
			<g>
				<g>
					<path class="st4" d="M-278.1,125.7c-1.8,5.2-9.6,8.1-8.5,13.5c0.7,3.4,4.8,5.4,5.1,8.9c0.5,5.8-9.6,7.3-10.5,13.1
						c-0.4,2.8,1.5,5.3,3.3,7.4c6.7,7.8,14.6,13,21.3,20.8c-4.9-3.9-10.3-0.5-18.8-3.8c-5.8-2.2-12.5-4.6-14.8-10.4
						c-0.9-2.3-1-4.8-2.1-7c-2.5-5.1-8.7-6.6-14.1-8.3c-5.4-1.7-11.4-5.3-11.3-10.9c0.2-8.2,12.6-10.7,15-18.5
						c1.9-6.1-3-12.2-2.9-18.6c0.2-6.3,5.2-11.3,9.9-15.5c7.1-6.4,25-17.4,21.6,1.2c-1.2,6.4-1.4,9.4,2.1,15.1
						C-280.2,116.7-276.4,120.8-278.1,125.7z"/>
				</g>
				<g>
					<path class="st5" d="M-186,74.4c-6-0.3-12,1.6-18,1.2c-6.9-0.5-13.2-4.1-20-5.9c-9.5-2.5-20-1.1-28.5,3.8
						c-3.6,2.1-7.2,5.3-7.6,9.5c-0.2,2.1,0.4,4.1,0.2,6.2c-0.6,5.7-7.1,8.9-12.8,9.6c-5.7,0.6-11.9-0.2-17,2.4
						c-3.7,1.8-6.6,6.5-4.5,10c1.1,1.9,3.5,3.1,3.9,5.2c1.1,5.4-10.3,6.9-9.4,12.4c0.7,4.1,7.3,3.7,9.6,7.2c1.6,2.5,0.3,5.9-1.7,8
						c-2,2.1-4.7,3.6-6.6,5.9c-10.4,12.7,11.1,17.6,14.5,27.3c0.9,2.6,1.3,5.5,2.9,7.8c2.4,3.4,6.9,4.4,10.7,5.8
						c8.1,3,15.2,8.6,19.9,15.8c-1.3-6.6-2.7-13.2-2.5-19.9s2-13.5,6.4-18.6c7.8-9,21.8-10.6,29.5-19.7c4.2-4.9,6.2-11.7,11.5-15.4
						c4.9-3.5,11.6-3.5,16.8-6.6c4.8-2.8,7.8-7.9,10.6-12.8c2.6-4.5,5.3-9.2,6.4-14.3C-169,89.3-174.2,75.1-186,74.4z"/>
				</g>
				<g>
					<path class="st4" d="M-241,170.5c6.5-8.5,15.1-15.3,20.3-24.6c3.2-5.6,5.2-12.2,10.1-16.4c5.7-4.8,14.3-5.4,19.5-10.7
						c4-4,5.4-10.1,9.2-14.2c2.7-2.9,6.3-4.6,9.7-6.6c3.4-1.9,6.8-4.3,8.6-7.8c1.8-3.5,1.2-8.4-2.1-10.5c-4.1-2.5-9.2,0.3-14,0.5
						c-10.5,0.5-18.6-11.9-29.1-10.8c-6.6,0.7-11.8,6.7-18.4,7.2c-3.6,0.3-7.1-1.1-10.8-1.2c-3.6-0.1-7.9,2-7.9,5.6
						c-0.1,5.1,7.5,6.8,9.1,11.6c1.3,3.8-1.5,7.7-4.3,10.6c-2.8,2.9-5.9,6.3-5.4,10.3c0.4,3.1,3,5.4,3.6,8.4
						c1.2,5.6-4.4,10.2-9.3,13.3c-4.9,3.1-10.4,7.8-9,13.4c0.9,3.5,4.4,5.9,5.7,9.3c2,5.3-1.6,10.8-3.3,16.2
						c-2,6.6-1.1,13.7,1.3,20.2c2.3,6.2,5.8,12.6,9.9,17.7c2.9-7.1-0.8-12.2-1.5-19C-249.8,185-245.8,176.7-241,170.5z"/>
				</g>
				<g>
					<path class="st6" d="M-297.3,180.8c-4.8-5.2-8.1-11.9-14-15.7c-3.9-2.5-8.5-3.6-12.6-5.7c-4.1-2.1-7.9-6-7.7-10.6
						c0.3-7.2,9.1-10.5,13-16.5c3.6-5.8,2.2-13.3,1.8-20.1c-0.3-6.9,1.8-15.2,8.4-17.1c1-0.3,2.1-0.4,3,0.1c2.4,1.2,1.9,4.9,0.1,6.9
						c-1.8,1.9-4.4,3.1-6,5.2c-5.5,7.3,5,18.1,1.2,26.4c-1.6,3.4-5.1,5.3-7.3,8.3s-1.9,8.5,1.8,9.1c5.8,0.9,6.3-11.4,12.2-11.2
						c1.8,2.8-1.2,6.1-3.9,8s-5.8,5.1-4.2,8c1,1.9,3.5,2.4,5.5,3.3c4.2,1.8,6.8,6,8.6,10.2c1.9,4.2,3.3,8.6,6.3,12.1
						c2.9,3.4,8.9,5.5,12.6,5.8C-284.1,189.6-293.7,184.7-297.3,180.8z"/>
				</g>
				<g>
					<path class="st6" d="M-264.4,152.8c-1.3-4-2.8-8.2-1.6-12.2c2.6-8.3,15.3-10.5,16.6-19.1c0.9-6.3-5.3-13.5-1.3-18.5
						c2.8-3.5,9.5-3.6,10.4-8c1-5.2-7.4-7.3-8.9-12.4c-1.2-4.4,3.6-8.4,8.2-8.5s8.7,2.2,13,3.8c8.2,2.9,17.3,2.9,25.5,0
						c-2.6,4.5-8.1,7.2-13.3,6.5c-4.1-0.6-7.8-3-11.9-3.6c-4.1-0.5-9.3,2.4-8.5,6.5c0.6,2.8,3.6,4.4,4.7,6.9
						c1.8,3.9-1.4,8.3-4.7,11.1c-3.3,2.8-7.3,5.5-8,9.8c-0.9,5.7,4.7,11.2,3.3,16.9c-1.9,7.6-15,9.3-14.7,17.1
						c0.1,3.5,3.2,6.1,4.5,9.4c2.2,6.6-0.9,11.3-3.8,16.9c-3.2,6.4-2,12-2.6,19.1C-261,179.8-259.7,167.2-264.4,152.8z"/>
				</g>
				<g>
					<path class="st4" d="M-268.7,114c0,3.6,1.4,7.4-0.2,10.5c-1.4,2.7-4.4,4-6.3,6.3c-3.6,4.4-1.9,11,0.7,16
						c2.5,5,5.9,10.2,5.2,15.9c-0.4,2.7-1.7,5.2-2.9,7.7c-1.2,2.5-2.3,5.1-2.3,7.8c0.1,2.7,1.6,5.6,4.2,6.4
						c-4.9-1.3-8.6-6.2-8.5-11.3c0.1-4.2,2.6-8.2,2.3-12.4c-0.5-5.8-6-9.7-8.5-14.9c-2.8-5.7-1.8-13.1,2.6-17.7
						c2.6-2.8,6.5-5.1,6.8-8.9c0.2-3-1.9-5.6-2-8.6c0-3.2,2.5-6,5.4-7.3c1.7-0.7,7.2-2.6,7.6,0.6c0.1,1-2.1,3-2.6,4
						C-268.1,109.9-268.7,112-268.7,114z"/>
				</g>
				<g>
					<path class="st5" d="M-198.2,115.9c-4.2,2.5-9.7,2.3-13.8,5c-7.6,5.1-6.3,17.1-12.2,24.1c-2.8,3.3-6.8,5.1-10.5,7.4
						c-3.6,2.3-7.1,5.6-7.5,9.9c-3.1-4.2-0.3-10.3,3.4-14c3.8-3.7,8.6-6.6,10.5-11.5c1.5-4,0.8-8.4,0.9-12.6
						c0.1-4.3,1.7-9.1,5.7-10.6c3-1.1,6.7,0,9.4-1.8c4.9-3.4,1-13.1,6.2-16.1c2.9-1.7,5.2,0.4,7.9,0.2c3.7-0.2,6.8-2.9,9.7-5.1
						c3.1-2.3,7.1-4.5,10.8-3.2c1.3,0.5,2.5,1.5,2.5,2.8c0,2-2.5,2.9-4.4,3.6C-190.7,98-188.9,110.3-198.2,115.9z"/>
				</g>
			</g>
			<g>
				<g>
					<path class="st4" d="M-125.7,166.4c-3.9-3.8-3.3-12.1-8.6-13.4c-3.4-0.8-7,2.1-10.2,0.8c-5.5-2.1-2.5-11.8-7.4-15
						c-2.3-1.6-5.4-0.9-8.1-0.1c-9.9,2.7-18,7.7-27.9,10.4c5.6-2.8,4.9-9,11.4-15.4c4.5-4.4,9.4-9.4,15.7-8.9
						c2.4,0.2,4.8,1.1,7.2,1.1c5.6-0.1,9.7-5.1,13.5-9.2c3.8-4.1,9.6-8.1,14.7-5.6c7.3,3.6,4.3,15.9,10.3,21.4
						c4.7,4.3,12.3,2.5,18,5.3c5.6,2.8,8,9.5,9.8,15.5c2.8,9.1,5.1,30-10.3,19.1c-5.3-3.8-7.9-5.3-14.6-4.6
						C-116.6,168.2-122,170-125.7,166.4z"/>
				</g>
				<g>
					<path class="st5" d="M-118.5,271.5c2.9-5.3,3.6-11.5,6.6-16.8c3.4-6.1,9.4-10.2,13.8-15.6c6.3-7.5,9.5-17.6,8.7-27.4
						c-0.3-4.2-1.7-8.8-5.3-10.9c-1.8-1-3.9-1.4-5.7-2.4c-5-3-5.1-10.2-3.2-15.6c1.9-5.5,5.2-10.7,5.1-16.4c-0.1-4.1-3-8.7-7.1-8.3
						c-2.2,0.2-4.3,1.9-6.4,1.3c-5.4-1.3-1.9-12.3-7.2-13.8c-4-1.1-6.5,5-10.6,5.6c-2.9,0.4-5.4-2.2-6.5-4.9
						c-1.1-2.7-1.3-5.8-2.5-8.4c-7-14.9-20.7,2.5-30.9,1.5c-2.8-0.3-5.6-1.2-8.3-0.7c-4.1,0.8-6.9,4.3-9.9,7.2
						c-6.1,6-14.2,10.1-22.8,11.3c6.5,1.6,13.1,3.2,19,6.2c6,3,11.4,7.6,14.1,13.7c4.8,10.9,0.3,24.2,5.2,35.1
						c2.7,5.9,7.9,10.6,9.1,16.9c1.1,6-1.8,12-1.2,18c0.5,5.6,3.8,10.5,7,15.1c3,4.3,6.1,8.7,10.2,11.9
						C-139.2,280.5-124.1,281.9-118.5,271.5z"/>
				</g>
				<g>
					<path class="st4" d="M-182,180.8c4.9,9.5,7.5,20.2,13.6,28.8c3.7,5.3,8.8,9.9,10.5,16.1c1.9,7.2-1.1,15.2,1.4,22.2
						c1.9,5.3,6.8,9.1,8.9,14.4c1.5,3.6,1.5,7.7,1.8,11.6c0.3,3.9,0.9,8,3.4,11.1c2.4,3.1,7.1,4.7,10.4,2.6c4-2.6,3.6-8.5,5.5-12.9
						c4-9.7,18.7-11.8,22.2-21.7c2.2-6.3-1-13.5,1.4-19.7c1.3-3.4,4.1-6,5.7-9.2c1.6-3.2,1.5-8-1.7-9.6c-4.6-2.3-9.4,3.8-14.4,3.3
						c-4-0.4-6.3-4.6-7.8-8.4c-1.4-3.7-3.2-8.1-7-9.3c-2.9-0.9-6.2,0.4-9.2-0.3c-5.6-1.3-7.4-8.3-8.1-14c-0.7-5.7-2.6-12.7-8.3-13.9
						c-3.6-0.7-7.2,1.4-10.8,1.2c-5.6-0.4-9.1-6.1-13.3-9.9c-5.1-4.6-12-6.8-18.8-7.4c-6.6-0.5-13.8-0.1-20.2,1.4
						c5.2,5.6,11.4,4.5,17.8,6.7C-191.3,166.7-185.6,173.8-182,180.8z"/>
				</g>
				<g>
					<path class="st6" d="M-167.3,125.6c6.7-2.1,14.2-2.3,20.2-6c3.9-2.4,6.9-6.1,10.5-8.9c3.7-2.8,8.8-4.6,12.8-2.5
						c6.4,3.3,5.6,12.7,9.5,18.8c3.7,5.8,11.1,7.6,17.4,10.2c6.3,2.6,13,8.1,11.9,14.8c-0.2,1-0.6,2.1-1.4,2.7
						c-2.1,1.7-5.2-0.4-6.2-2.9c-1-2.5-0.9-5.3-2.1-7.7c-4.2-8.1-18.6-3.2-24.4-10.2c-2.4-2.8-2.6-6.9-4.4-10.2s-6.9-5.4-9-2.3
						c-3.3,4.9,7.6,10.5,4.9,15.8c-3.3,0.4-5-3.7-5.6-6.9c-0.6-3.2-2.1-7.4-5.4-7.2c-2.2,0.1-3.6,2.1-5.3,3.6
						c-3.4,3-8.3,3.5-12.9,3.4c-4.6-0.1-9.2-0.7-13.6,0.5c-4.4,1.2-8.7,5.7-10.6,9C-180.9,133.7-172.3,127.1-167.3,125.6z"/>
				</g>
				<g>
					<path class="st6" d="M-156,167.2c4.1,0.5,8.6,0.9,11.7,3.7c6.4,5.8,3,18.4,10.2,23.1c5.3,3.5,14.4,1,17.3,6.7
						c2,4.1-0.8,10.1,2.8,12.8c4.3,3.1,9.8-3.6,15-2.7c4.5,0.8,6,6.9,4.2,11c-1.8,4.1-5.7,6.9-8.9,10.1c-6.1,6.1-10,14.4-10.9,23.1
						c-3-4.3-3.1-10.4-0.3-14.8c2.3-3.5,6.1-5.8,8.3-9.3c2.2-3.5,1.8-9.4-2.2-10.4c-2.8-0.7-5.5,1.4-8.3,1.3
						c-4.3-0.1-6.9-4.8-8.1-8.9c-1.1-4.2-1.9-9-5.4-11.4c-4.8-3.3-12.2-0.5-16.6-4.2c-6-5-2-17.5-9.2-20.6
						c-3.2-1.4-6.9,0.3-10.4,0.1c-6.9-0.9-9.8-5.6-13.7-10.6c-4.4-5.6-10-7-16.2-10.5C-181.9,158.8-171.1,165.3-156,167.2z"/>
				</g>
				<g>
					<path class="st4" d="M-119,179.8c-3.2-1.5-7.3-1.8-9.5-4.7c-1.8-2.4-1.7-5.7-3-8.4c-2.5-5.1-9.1-6.4-14.8-6.2
						c-5.7,0.2-11.8,1-16.5-2.1c-2.3-1.5-4-3.7-5.7-5.9c-1.7-2.1-3.6-4.3-6.1-5.4c-2.5-1.1-5.8-1-7.6,1.1c3.2-3.9,9.3-5.2,13.8-2.9
						c3.8,1.9,6.3,5.9,10.2,7.3c5.4,2,11.3-1.3,17.1-1.4c6.3-0.1,12.6,4,14.9,9.9c1.4,3.6,1.9,8,5.2,9.9c2.6,1.4,5.9,0.6,8.6,1.9
						c2.9,1.3,4.4,4.8,4.3,8c-0.1,1.8-0.7,7.6-3.8,6.6c-1-0.3-1.8-3.2-2.5-4.1C-115.6,182.1-117.2,180.7-119,179.8z"/>
				</g>
				<g>
					<path class="st5" d="M-150.8,242.8c-0.5-4.9,2.1-9.7,1.3-14.6c-1.4-9.1-12.8-13-16.6-21.3c-1.8-3.9-1.7-8.4-2.3-12.6
						c-0.5-4.3-2-8.8-5.7-11c5.2-1.1,9.5,4.1,11.2,9.1c1.7,5,2.3,10.6,5.9,14.4c2.9,3.1,7.3,4.3,11,6.2c3.8,1.9,7.5,5.4,7.1,9.7
						c-0.3,3.2-2.9,6.1-2.4,9.2c1,5.9,11.4,6.5,11.9,12.4c0.3,3.3-2.5,4.5-3.6,7.1c-1.4,3.5-0.3,7.4,0.5,10.9
						c0.8,3.8,1,8.4-1.7,11.1c-0.9,1-2.4,1.6-3.6,1c-1.8-0.9-1.6-3.5-1.4-5.5C-137.9,257.2-149.7,253.6-150.8,242.8z"/>
				</g>
			</g>
			<g>
				<g>
					<path class="st4" d="M-179.8,288c4.1-3.7,12.3-2.5,14-7.7c1.1-3.3-1.6-7.1-0.2-10.3c2.4-5.3,11.9-1.8,15.5-6.4
						c1.7-2.2,1.2-5.3,0.7-8.1c-2.1-10-6.5-18.5-8.6-28.5c2.4,5.8,8.7,5.4,14.6,12.4c4.1,4.8,8.7,10,7.9,16.2
						c-0.3,2.4-1.4,4.7-1.5,7.1c-0.3,5.6,4.5,10,8.3,14.1c3.9,4.1,7.5,10.1,4.6,15c-4.1,7.1-16.1,3.3-22.1,8.9
						c-4.6,4.4-3.2,12.2-6.5,17.6c-3.2,5.4-10,7.3-16.1,8.8c-9.3,2.2-30.3,3.1-18.4-11.5c4.1-5,5.8-7.6,5.5-14.3
						C-182.2,296.9-183.6,291.4-179.8,288z"/>
				</g>
				<g>
					<path class="st5" d="M-285.1,288.4c5.1,3.2,11.3,4.4,16.3,7.6c5.8,3.8,9.6,10,14.7,14.8c7.1,6.8,16.9,10.6,26.8,10.4
						c4.2-0.1,8.9-1.1,11.2-4.6c1.2-1.7,1.6-3.8,2.8-5.5c3.3-4.8,10.5-4.4,15.8-2.2c5.3,2.2,10.3,5.9,16.1,6.1
						c4.1,0.2,8.9-2.5,8.8-6.6c-0.1-2.2-1.6-4.4-0.9-6.5c1.7-5.3,12.4-1.1,14.2-6.3c1.4-3.9-4.6-6.8-4.9-10.9
						c-0.2-2.9,2.5-5.3,5.4-6.2c2.8-0.9,5.9-0.9,8.6-2c15.3-6.1-1.2-20.8,0.5-31c0.5-2.8,1.5-5.5,1.2-8.3c-0.5-4.1-3.9-7.2-6.6-10.3
						c-5.6-6.5-9.1-14.9-9.8-23.5c-2,6.4-4,12.8-7.4,18.6c-3.4,5.8-8.3,10.9-14.6,13.2c-11.2,4.1-24.2-1.3-35.3,2.9
						c-6,2.3-11.1,7.2-17.5,7.9c-6,0.7-11.9-2.5-17.9-2.4c-5.6,0.1-10.7,3.1-15.5,6c-4.5,2.7-9,5.5-12.5,9.4
						C-292.8,267-295.2,282.1-285.1,288.4z"/>
				</g>
				<g>
					<g>
						<path class="st7" d="M-198.3,297.4c-4.9,21.8-41.1,19.4-39.6-4.4c0.5-8,4.3-15.2,11.7-17.8c12.5-4.4,28.6,4.1,28.3,18
							C-197.8,294.6-198,296-198.3,297.4z"/>
					</g>
					<g>
						<path class="st4" d="M-223,285c-0.6,0,2.2,5.5,1.8,6.6c-0.5,1.1-5.5,5.5-5.5,5.8c0,0.3,6.8-2.9,7.4-2.4
							c0.6,0.5,1.6,6.1,2.3,6.2c0.6,0.1,1-6.6,1.6-7c0.7-0.5,7.5,1,7.9,0.3c0.5-0.7-7-3.3-7-3.9s3.2-5.3,2.7-6.1
							c-0.5-0.8-5.5,4.6-5.9,4.4C-218.2,288.6-222.2,284.9-223,285z"/>
					</g>
					<g>
						<path class="st6" d="M-216.5,292.4c-0.1,0.6-0.7,1-1.3,0.9c-0.6-0.1-1-0.7-0.9-1.3c0.1-0.6,0.7-1,1.3-0.9
							C-216.8,291.2-216.4,291.7-216.5,292.4z"/>
					</g>
				</g>
				<g>
					<path class="st4" d="M-190.5,230.8c-9.8,4.3-20.6,6.1-29.6,11.7c-5.5,3.4-10.4,8.2-16.7,9.5c-7.3,1.5-15.1-2.1-22.3,0
						c-5.4,1.6-9.6,6.2-14.9,8c-3.7,1.2-7.7,1-11.7,1.1c-3.9,0-8.1,0.4-11.3,2.6c-3.2,2.2-5.2,6.8-3.3,10.2
						c2.3,4.2,8.2,4.2,12.5,6.3c9.5,4.7,10.6,19.4,20.3,23.5c6.1,2.6,13.5-0.1,19.6,2.6c3.3,1.5,5.7,4.4,8.8,6.3
						c3.1,1.8,7.9,2,9.7-1.1c2.6-4.4-3.2-9.6-2.4-14.6c0.7-4,5-6,8.8-7.2c3.8-1.2,8.2-2.7,9.7-6.4c1.1-2.9,0-6.2,0.9-9.1
						c1.7-5.5,8.8-6.8,14.5-7.2c5.8-0.3,12.9-1.8,14.4-7.4c0.9-3.5-1-7.3-0.5-10.9c0.8-5.6,6.7-8.7,10.7-12.6
						c4.9-4.8,7.6-11.5,8.6-18.3c1-6.5,1-13.8-0.1-20.3c-5.9,4.8-5.2,11.1-7.9,17.4C-175.9,222.4-183.3,227.7-190.5,230.8z"/>
				</g>
				<g>
					<path class="st6" d="M-136.3,249.1c1.6,6.9,1.3,14.3,4.6,20.6c2.2,4.1,5.7,7.2,8.2,11.1c2.5,3.8,4,9,1.7,13
						c-3.7,6.2-13.1,4.7-19.3,8.2c-6,3.3-8.3,10.6-11.3,16.7c-3,6.2-8.9,12.5-15.6,10.9c-1-0.2-2-0.7-2.6-1.5
						c-1.5-2.2,0.7-5.2,3.3-6c2.5-0.8,5.4-0.5,7.8-1.6c8.4-3.7,4.4-18.3,11.7-23.7c3-2.2,7.1-2.2,10.4-3.7c3.4-1.6,5.8-6.5,2.9-8.8
						c-4.7-3.6-11,6.9-16.1,3.9c-0.2-3.3,4-4.8,7.3-5.2c3.3-0.4,7.5-1.6,7.5-4.9c0-2.2-1.9-3.8-3.2-5.5c-2.8-3.6-3-8.6-2.6-13.1
						c0.4-4.5,1.3-9.1,0.4-13.6c-0.9-4.4-5.1-9.1-8.3-11.2C-143.6,234.9-137.6,243.9-136.3,249.1z"/>
				</g>
				<g>
					<path class="st6" d="M-178.7,257.6c-0.8,4.1-1.5,8.5-4.5,11.4c-6.2,6-18.5,1.8-23.7,8.7c-3.8,5.1-1.9,14.3-7.8,16.8
						c-4.2,1.7-10.1-1.5-13,2c-3.4,4.1,3,10,1.7,15.2c-1,4.4-7.2,5.6-11.2,3.5c-4-2.1-6.5-6.2-9.5-9.5c-5.7-6.5-13.8-10.9-22.3-12.3
						c4.5-2.7,10.6-2.4,14.8,0.7c3.3,2.5,5.4,6.4,8.7,8.9c3.3,2.5,9.3,2.4,10.5-1.6c0.8-2.7-1-5.5-0.8-8.4c0.4-4.3,5.2-6.6,9.4-7.5
						c4.2-0.8,9.1-1.3,11.7-4.7c3.6-4.6,1.3-12.1,5.3-16.3c5.4-5.7,17.6-0.9,21.1-7.8c1.6-3.1,0.2-6.9,0.6-10.4
						c1.3-6.8,6.3-9.4,11.4-13c5.9-4.1,7.6-9.5,11.5-15.5C-168.6,232.4-175.8,242.7-178.7,257.6z"/>
				</g>
				<g>
					<path class="st4" d="M-193.6,293.7c1.7-3.1,2.3-7.1,5.3-9.1c2.5-1.7,5.8-1.3,8.6-2.4c5.2-2.1,6.9-8.7,7.1-14.3
						c0.2-5.7-0.2-11.8,3.1-16.4c1.6-2.2,4-3.8,6.2-5.3c2.2-1.6,4.5-3.3,5.8-5.8c1.3-2.4,1.3-5.7-0.6-7.7c3.7,3.5,4.6,9.6,2,13.9
						c-2.2,3.6-6.2,5.9-8,9.7c-2.4,5.3,0.5,11.4,0.3,17.2c-0.3,6.3-4.8,12.3-10.8,14.3c-3.6,1.2-8.1,1.3-10.2,4.5
						c-1.6,2.5-1,5.9-2.4,8.5c-1.5,2.8-5.1,4.1-8.3,3.8c-1.8-0.2-7.6-1.2-6.3-4.2c0.4-1,3.3-1.6,4.2-2.2
						C-196.1,297-194.6,295.5-193.6,293.7z"/>
				</g>
				<g>
					<path class="st5" d="M-254.4,258c4.9-0.2,9.6,2.7,14.5,2.3c9.1-0.8,13.8-11.9,22.4-15.2c4-1.5,8.5-1.2,12.7-1.4
						c4.3-0.3,9-1.5,11.4-5c0.7,5.2-4.7,9.2-9.8,10.6c-5.1,1.4-10.8,1.6-14.8,5c-3.3,2.7-4.7,7-6.9,10.6c-2.2,3.7-5.9,7.1-10.1,6.5
						c-3.2-0.5-5.9-3.3-9.1-3c-5.9,0.6-7.2,11-13.2,11.1c-3.3,0.1-4.3-2.8-6.8-4c-3.4-1.6-7.4-0.7-10.9-0.2c-3.9,0.5-8.4,0.5-11-2.5
						c-0.9-1-1.5-2.5-0.8-3.7c1-1.8,3.6-1.4,5.6-1C-269.6,269.9-265.2,258.3-254.4,258z"/>
				</g>
			</g>
			<g>
				<g>
					<path class="st8" d="M-136.9,231c-4.9,21.8-41.1,19.4-39.6-4.4c0.5-8,4.3-15.2,11.7-17.8c12.5-4.4,28.6,4.1,28.3,18
						C-136.5,228.2-136.6,229.6-136.9,231z"/>
				</g>
				<g>
					<path class="st4" d="M-160.8,214.7c-0.6,0,2.2,5.5,1.8,6.6c-0.5,1.1-5.5,5.5-5.5,5.8c0,0.3,6.8-2.9,7.4-2.4
						c0.6,0.5,1.6,6.1,2.3,6.2c0.6,0.1,1-6.6,1.6-7c0.7-0.5,7.5,1,7.9,0.3c0.5-0.7-7-3.3-7-3.9c0-0.6,3.2-5.3,2.7-6.1
						c-0.5-0.8-5.5,4.6-5.9,4.4C-156,218.3-160,214.7-160.8,214.7z"/>
				</g>
				<g>
					<path class="st6" d="M-154.3,222.1c-0.1,0.6-0.7,1-1.3,0.9c-0.6-0.1-1-0.7-0.9-1.3c0.1-0.6,0.7-1,1.3-0.9
						C-154.5,220.9-154.1,221.5-154.3,222.1z"/>
				</g>
			</g>
			<g>
				<g>
					<path class="st7" d="M-159,251.2c-4.9,21.8-41.1,19.4-39.6-4.4c0.5-8,4.3-15.2,11.7-17.8c12.5-4.4,28.6,4.1,28.3,18
						C-158.5,248.4-158.7,249.8-159,251.2z"/>
				</g>
				<g>
					<path class="st4" d="M-183.7,238.8c-0.6,0,2.2,5.5,1.8,6.6c-0.5,1.1-5.5,5.5-5.5,5.8c0,0.3,6.8-2.9,7.4-2.4
						c0.6,0.5,1.6,6.1,2.3,6.2c0.6,0.1,1-6.6,1.6-7c0.7-0.5,7.5,1,7.9,0.3c0.5-0.7-7-3.3-7-3.9c0-0.6,3.2-5.3,2.7-6.1
						c-0.5-0.8-5.5,4.6-5.9,4.4C-178.9,242.4-182.9,238.8-183.7,238.8z"/>
				</g>
				<g>
					<path class="st6" d="M-177.2,246.2c-0.1,0.6-0.7,1-1.3,0.9c-0.6-0.1-1-0.7-0.9-1.3c0.1-0.6,0.7-1,1.3-0.9
						C-177.4,245-177,245.6-177.2,246.2z"/>
				</g>
			</g>
			<g>
				<g>
					<path class="st9" d="M-294.4,156.9c10,11.2,9,28.4-2.2,38.4c-11.2,10-28.4,9-38.4-2.2c-10-11.2-17.7-38.1-6.5-48.1
						C-330.3,135-304.4,145.7-294.4,156.9z"/>
					<path class="st10" d="M-301,162.2c5.6,6.3,5.1,16-1.2,21.7c-6.3,5.6-16,5.1-21.7-1.2c-5.6-6.3-5.1-16,1.2-21.7
						C-316.4,155.3-306.7,155.9-301,162.2z"/>
				</g>
				<path class="st11" d="M-294.4,156.9c-4.4-4.9-11.8-9.7-19.7-12.7c-7.3,7.7-2.4,25.7,2.4,33.1c4.3,6.6,10.3,12.1,17.2,15.8
					C-285.3,183-285.1,167.4-294.4,156.9z"/>
				<g>
					<path class="st12" d="M-262.3,141.5c5.7,13.9-0.9,29.8-14.8,35.5s-29.8-0.9-35.5-14.8c-5.7-13.9-4-41.8,9.9-47.5
						C-288.9,109-268,127.6-262.3,141.5z"/>
					<path class="st10" d="M-270.3,144.3c3.2,7.8-0.5,16.8-8.4,20c-7.8,3.2-16.8-0.5-20-8.4s0.5-16.8,8.4-20
						C-282.5,132.7-273.5,136.5-270.3,144.3z"/>
				</g>
				<path class="st11" d="M-262.3,141.5c-2.5-6-7.8-13-14.2-18.4c-0.6,1-1.3,2.2-1.8,3.5c-6.6,15.4-5.2,34.8,2,50
					C-263,170.6-256.8,155.1-262.3,141.5z"/>
				<g>
					<path class="st12" d="M-225.9,138.4c3.1,14.7-6.3,29.1-21,32.2c-14.7,3.1-29.1-6.3-32.2-21c-3.1-14.7,3.6-41.9,18.3-45
						C-246.2,101.6-229,123.8-225.9,138.4z"/>
					<path class="st10" d="M-234.3,139.7c1.8,8.3-3.5,16.4-11.8,18.2c-8.3,1.8-16.4-3.5-18.2-11.8s3.5-16.4,11.8-18.2
						C-244.2,126.1-236,131.4-234.3,139.7z"/>
				</g>
			</g>
			<g>
				<g>
					<path class="st4" d="M-203.6,210.2c4.1-3.7,12.3-2.5,14-7.7c1.1-3.3-1.6-7.1-0.2-10.3c2.4-5.3,11.9-1.8,15.5-6.4
						c1.7-2.2,1.2-5.3,0.7-8.1c-2.1-10-6.5-18.5-8.6-28.5c2.4,5.8,8.7,5.4,14.6,12.4c4.1,4.8,8.7,10,7.9,16.2
						c-0.3,2.4-1.4,4.7-1.5,7.1c-0.3,5.6,4.5,10,8.3,14.1c3.9,4.1,7.5,10.1,4.6,15c-4.1,7.1-16.1,3.3-22.1,8.9
						c-4.6,4.4-3.2,12.2-6.5,17.6c-3.2,5.4-10,7.3-16.1,8.8c-9.3,2.2-30.3,3.1-18.4-11.5c4.1-5,5.8-7.6,5.5-14.3
						C-206.1,219.2-207.5,213.7-203.6,210.2z"/>
				</g>
				<g>
					<path class="st5" d="M-309,210.6c5.1,3.2,11.3,4.4,16.3,7.6c5.8,3.8,9.6,10,14.7,14.8c7.1,6.8,16.9,10.6,26.8,10.4
						c4.2-0.1,8.9-1.1,11.2-4.6c1.2-1.7,1.6-3.8,2.8-5.5c3.3-4.8,10.5-4.4,15.8-2.2c5.3,2.2,10.3,5.9,16.1,6.1
						c4.1,0.2,8.9-2.5,8.8-6.6c-0.1-2.2-1.6-4.4-0.9-6.5c1.7-5.3,12.4-1.1,14.2-6.3c1.4-3.9-4.6-6.8-4.9-10.9
						c-0.2-2.9,2.5-5.3,5.4-6.2s5.9-0.9,8.6-2c15.3-6.1-1.2-20.8,0.5-31c0.5-2.8,1.5-5.5,1.2-8.3c-0.5-4.1-3.9-7.2-6.6-10.3
						c-5.6-6.5-9.1-14.9-9.8-23.5c-2,6.4-4,12.8-7.4,18.6c-3.4,5.8-8.3,10.9-14.6,13.2c-11.2,4.1-24.2-1.3-35.3,2.9
						c-6,2.3-11.1,7.2-17.5,7.9c-6,0.7-11.9-2.5-17.9-2.4c-5.6,0.1-10.7,3.1-15.5,6c-4.5,2.7-9,5.5-12.5,9.4
						C-316.7,189.3-319,204.4-309,210.6z"/>
				</g>
				<g>
					<path class="st4" d="M-214.4,153.1c-9.8,4.3-20.6,6.1-29.6,11.7c-5.5,3.4-10.4,8.2-16.7,9.5c-7.3,1.5-15.1-2.1-22.3,0
						c-5.4,1.6-9.6,6.2-14.9,8c-3.7,1.2-7.7,1-11.7,1.1c-3.9,0-8.1,0.4-11.3,2.6c-3.2,2.2-5.2,6.8-3.3,10.2
						c2.3,4.2,8.2,4.2,12.5,6.3c9.5,4.7,10.6,19.4,20.3,23.5c6.1,2.6,13.5-0.1,19.6,2.6c3.3,1.5,5.7,4.4,8.8,6.3
						c3.1,1.8,7.9,2,9.7-1.1c2.6-4.4-3.2-9.6-2.4-14.6c0.7-4,5-6,8.8-7.2c3.8-1.2,8.2-2.7,9.7-6.4c1.1-2.9,0-6.2,0.9-9.1
						c1.7-5.5,8.8-6.8,14.5-7.2c5.8-0.3,12.9-1.8,14.4-7.4c0.9-3.5-1-7.3-0.5-10.9c0.8-5.6,6.7-8.7,10.7-12.6
						c4.9-4.8,7.6-11.5,8.6-18.3c1-6.5,1-13.8-0.1-20.3c-5.9,4.8-5.2,11.1-7.9,17.4C-199.7,144.7-207.2,150-214.4,153.1z"/>
				</g>
				<g>
					<path class="st6" d="M-160.2,171.3c1.6,6.9,1.3,14.3,4.6,20.6c2.2,4.1,5.7,7.2,8.2,11.1c2.5,3.8,4,9,1.7,13
						c-3.7,6.2-13.1,4.7-19.3,8.2c-6,3.3-8.3,10.6-11.3,16.7c-3,6.2-8.9,12.5-15.6,10.9c-1-0.2-2-0.7-2.6-1.5
						c-1.5-2.2,0.7-5.2,3.3-6c2.5-0.8,5.4-0.5,7.8-1.6c8.4-3.7,4.4-18.3,11.7-23.7c3-2.2,7.1-2.2,10.4-3.7c3.4-1.6,5.8-6.5,2.9-8.8
						c-4.7-3.6-11,6.9-16.1,3.9c-0.2-3.3,4-4.8,7.3-5.2c3.3-0.4,7.5-1.6,7.5-4.9c0-2.2-1.9-3.8-3.2-5.5c-2.8-3.6-3-8.6-2.6-13.1
						c0.4-4.5,1.3-9.1,0.4-13.6c-0.9-4.4-5.1-9.1-8.3-11.2C-167.5,157.2-161.4,166.2-160.2,171.3z"/>
				</g>
				<g>
					<path class="st6" d="M-202.5,179.9c-0.8,4.1-1.5,8.5-4.5,11.4c-6.2,6-18.5,1.8-23.7,8.7c-3.8,5.1-1.9,14.3-7.8,16.8
						c-4.2,1.7-10.1-1.5-13,2c-3.4,4.1,3,10,1.7,15.2c-1,4.4-7.2,5.6-11.2,3.5c-4-2.1-6.5-6.2-9.5-9.5c-5.7-6.5-13.8-10.9-22.3-12.3
						c4.5-2.7,10.6-2.4,14.8,0.7c3.3,2.5,5.4,6.4,8.7,8.9c3.3,2.5,9.3,2.4,10.5-1.6c0.8-2.7-1-5.5-0.8-8.4c0.4-4.3,5.2-6.6,9.4-7.5
						c4.2-0.8,9.1-1.3,11.7-4.7c3.6-4.6,1.3-12.1,5.3-16.3c5.4-5.7,17.6-0.9,21.1-7.8c1.6-3.1,0.2-6.9,0.6-10.4
						c1.3-6.8,6.3-9.4,11.4-13c5.9-4.1,7.6-9.5,11.5-15.5C-192.5,154.6-199.7,165-202.5,179.9z"/>
				</g>
				<g>
					<path class="st4" d="M-217.5,216c1.7-3.1,2.3-7.1,5.3-9.1c2.5-1.7,5.8-1.3,8.6-2.4c5.2-2.1,6.9-8.7,7.1-14.3
						c0.2-5.7-0.2-11.8,3.1-16.4c1.6-2.2,4-3.8,6.2-5.3c2.2-1.6,4.5-3.3,5.8-5.8c1.3-2.4,1.3-5.7-0.6-7.7c3.7,3.5,4.6,9.6,2,13.9
						c-2.2,3.6-6.2,5.9-8,9.7c-2.4,5.3,0.5,11.4,0.3,17.2c-0.3,6.3-4.8,12.3-10.8,14.3c-3.6,1.2-8.1,1.3-10.2,4.5
						c-1.6,2.5-1,5.9-2.4,8.5c-1.5,2.8-5.1,4.1-8.3,3.8c-1.8-0.2-7.6-1.2-6.3-4.2c0.4-1,3.3-1.6,4.2-2.2
						C-219.9,219.2-218.5,217.7-217.5,216z"/>
				</g>
				<g>
					<path class="st5" d="M-278.3,180.2c4.9-0.2,9.6,2.7,14.5,2.3c9.1-0.8,13.8-11.9,22.4-15.2c4-1.5,8.5-1.2,12.7-1.4
						c4.3-0.3,9-1.5,11.4-5c0.7,5.2-4.7,9.2-9.8,10.6c-5.1,1.4-10.8,1.6-14.8,5c-3.3,2.7-4.7,7-6.9,10.6c-2.2,3.7-5.9,7.1-10.1,6.5
						c-3.2-0.5-5.9-3.3-9.1-3c-5.9,0.6-7.2,11-13.2,11.1c-3.3,0.1-4.3-2.8-6.8-4c-3.4-1.6-7.4-0.7-10.9-0.2c-3.9,0.5-8.4,0.5-11-2.5
						c-0.9-1-1.5-2.5-0.8-3.7c1-1.8,3.6-1.4,5.6-1C-293.5,192.2-289.1,180.6-278.3,180.2z"/>
				</g>
			</g>
		</g>
		<g>
			<g>
				<path class="st13" d="M-121.9,149.4c-1.3,7.8-5,15.2-10.2,21.2l-3.3-2.8l-64.5-56l-2.5-2.2c5-5.9,11.4-10.6,18.6-13.5
					c5.8-2.3,12.1-3.4,18.6-3C-137.7,94.7-117.3,122.6-121.9,149.4z"/>
			</g>
			<g>
				<path class="st14" d="M-125.2,142.2c-0.4,9.6-4.2,18.6-10.2,25.6l-64.5-56c3.7-4.3,8.3-7.9,13.5-10.4
					c11.7-5.5,25.9-5.2,37.4,0.7C-134.3,109.5-124.6,125.8-125.2,142.2z"/>
			</g>
			<g>
				<path class="st15" d="M-161.9,103.5c-1.5-1.1-3.4-1.6-5.2-1.8c-3.4-0.4-6.9,0.3-10.2,1.1c-2.6,0.7-4.9,1.8-7.3,2.8
					c-1.6,0.7-3.4,1.7-5,2.8c-1.5,1-3.5,2.3-3.5,4.3c0.1,1.6,1.3,3,2.4,4c5.7,5.2,11.3,10.5,17,15.7c0.8,0.8,1.7,1.5,2.7,1.9
					c2.4,0.8,3.8-1,4.7-2.9c1-2.4,4.7-14.9,5.5-18.7C-160.1,109.7-159,105.6-161.9,103.5z M-135.2,128.3c-1.6-0.3-3.2,0.4-4.8,1
					c-6.6,2.8-13.2,5.7-19.8,8.5c-1.2,0.5-3.5,1.3-2.9,2.9c0.4,1.1,1.5,1.8,2.4,2.5c1,0.9,2,1.7,3,2.6c2,1.7,4,3.5,5.9,5.2
					c3,2.6,5.9,5.9,9.5,7.6c2.5,1.2,5.3,1,7.2-1.2c2.5-2.8,3.7-7,4.4-10.6c0.9-4.5,1.2-10-0.5-14.4
					C-131.5,130.6-133.1,128.6-135.2,128.3z M-137.7,115.7c-2.5-3.1-5.6-5.7-9.1-7.5c-1.9-1-4-2.1-6.2-2c-3.4,0.2-4.9,3.5-5.7,6.3
					c-2.1,6.7-4.4,13.5-5.5,20.4c-0.2,1.3-0.6,2.6,0.5,3.3c0.9,0.6,2.1,0.1,3.1-0.3c7.2-3.2,14.4-6.4,21.6-9.6
					c1.7-0.7,3.6-1.7,4.1-3.4C-134,120.2-136.2,117.5-137.7,115.7z"/>
			</g>
		</g>
		<g>
			<g>
				<path class="st16" d="M-321.3,247c0,0,44.2,13.8,56.9,36.2C-264.3,283.2-310.9,273.9-321.3,247z"/>
				<path class="st17" d="M-321.3,247c12.1,11.4,46.3,34.1,56.9,36.2c0,0-28.7,7.6-44.7-2.1C-325.1,271.5-321.3,247-321.3,247z"/>
			</g>
			<g>
				<path class="st16" d="M-308.1,214.3c0,0,48.7,19,62.3,56.2C-245.8,270.5-293.9,255.4-308.1,214.3z"/>
				<path class="st17" d="M-245.8,270.5c-26.4-15.5-43.5-32.1-62.3-56.2c-3.5,1.9-12.3,17.6-12.3,17.6
					c15.9,25.3,34.9,40.9,62.9,51.5C-257.5,283.5-249.1,275.9-245.8,270.5z"/>
				<path class="st18" d="M-297.8,222.3c0,0,22.7,27.2,45.9,40.3C-252,262.5-278.1,230-297.8,222.3z"/>
			</g>
			<g>
				<path class="st16" d="M-288.2,185.4c0,0,56.4,28.7,68.5,71.1C-219.8,256.4-275.9,232.1-288.2,185.4z"/>
				<path class="st17" d="M-219.8,256.4c-28-19.3-49.6-42.8-68.5-71.1c-8.1,4.2-17.3,15.7-17.3,18.3c15.6,29.4,41,53.4,71.2,67.5
					C-230.4,266.1-223.8,261.5-219.8,256.4z"/>
				<path class="st18" d="M-276.2,196.5c0,0,23,31.9,47.6,48.4C-228.6,244.8-255,206.6-276.2,196.5z"/>
			</g>
			<g>
				<path class="st16" d="M-262.7,147.9c0,0,60.8,41.8,68.9,90.9C-193.8,238.9-254.8,202-262.7,147.9z"/>
				<path class="st17" d="M-193.8,238.9c-29-25.3-51.3-56.7-68.9-90.9c-9.6,3.7-20.6,20.5-20.6,20.5c13.7,35,39.1,65.4,71.2,85
					C-206.9,248.3-198.9,244.1-193.8,238.9z"/>
				<path class="st18" d="M-249.4,164.2c0,0,21.7,38.9,47.2,60.5C-202.2,224.7-226.9,178.3-249.4,164.2z"/>
			</g>
			<g>
				<path class="st16" d="M-221.4,125.6c0,0,52,48.8,52.1,98.6C-169.3,224.2-222.4,180.2-221.4,125.6z"/>
				<path class="st17" d="M-169.3,224.2c-24.5-29.7-40.3-62-52.1-98.6c0,0-19.2,6.1-24.9,14.6c7.9,36.8,28.1,70.8,56.5,95.4
					C-183.8,231.4-175.3,228.4-169.3,224.2z"/>
				<path class="st18" d="M-212.2,141.4c0,0,15.1,41.9,36.8,67.4C-175.4,208.8-192.2,159-212.2,141.4z"/>
			</g>
			<g>
				<path class="st16" d="M-179.7,113c0,0,41,51.8,34.1,97.4C-145.6,210.3-188.3,162.7-179.7,113z"/>
				<path class="st17" d="M-145.6,210.3c-18.2-30.5-28.4-62.3-34.1-97.4c-9.5,0.5-18,2.9-24.4,9.9c2,34.7,15.7,68.6,38.2,95.1
					C-159.9,214.8-151.7,213.4-145.6,210.3z"/>
				<path class="st18" d="M-173.1,128.7c0,0,7.9,40.3,24.1,66.7C-149,195.4-157.4,147.6-173.1,128.7z"/>
			</g>
			<g>
				<path class="st16" d="M-136.4,110.7c0,0,29.5,49,16.5,90.3C-119.9,201-151.5,155.8-136.4,110.7z"/>
				<path class="st17" d="M-119.9,201c-12.5-31-16.3-56.9-16.5-90.3c-4.3-0.7-18.2-0.6-24.4,3.8c-3.1,32.6,4.7,66.1,21.9,93.9
					C-132.8,206.5-126.3,203.5-119.9,201z"/>
				<path class="st18" d="M-132.7,124.5c0,0,1.5,38.7,12.8,65.5C-119.9,190-120.9,144.3-132.7,124.5z"/>
			</g>
			<path class="st17" d="M-126.3,114.7c0,0-4.4,56,9.7,77.2C-116.6,191.9-84.2,144.9-126.3,114.7z"/>
		</g>
		<g>
			<g>
				<path class="st7" d="M-191.4,134.7c-4.9,21.8-41.1,19.4-39.6-4.4c0.5-8,4.3-15.2,11.7-17.8c12.5-4.4,28.6,4.1,28.3,18
					C-190.9,131.9-191.1,133.3-191.4,134.7z"/>
			</g>
			<g>
				<path class="st4" d="M-216.1,122.3c-0.6,0,2.2,5.5,1.8,6.6c-0.5,1.1-5.5,5.5-5.5,5.8c0,0.3,6.8-2.9,7.4-2.4
					c0.6,0.5,1.6,6.1,2.3,6.2c0.6,0.1,1-6.6,1.6-7c0.7-0.5,7.5,1,7.9,0.3c0.5-0.7-7-3.3-7-3.9s3.2-5.3,2.7-6.1
					c-0.5-0.8-5.5,4.6-5.9,4.4C-211.3,125.9-215.2,122.3-216.1,122.3z"/>
			</g>
			<g>
				<path class="st6" d="M-209.5,129.7c-0.1,0.6-0.7,1-1.3,0.9s-1-0.7-0.9-1.3c0.1-0.6,0.7-1,1.3-0.9
					C-209.8,128.5-209.4,129.1-209.5,129.7z"/>
			</g>
		</g>
		<g>
			<g>
				<g>
					<path class="st2" d="M-140.7,265.8l-4.1-2.9c7.3-10.2,17-18.7,28.1-24.6l2.3,4.4C-124.8,248.2-133.9,256.2-140.7,265.8z"/>
				</g>
			</g>
			<g>
				<g>
					<path class="st2" d="M-124.3,225.4l-4.2-2.7c5.1-7.8,14.6-12.7,23.8-12.5l-0.1,5c-0.2,0-0.4,0-0.5,0
						C-112.8,215.2-120.2,219.2-124.3,225.4z"/>
				</g>
			</g>
			<g>
				<g>
					<path class="st2" d="M-263.6,303.6l-1.6-4.7c7.7-2.7,14.3-8.7,17.6-16.2l4.6,2C-246.9,293.4-254.6,300.5-263.6,303.6z"/>
				</g>
			</g>
			<g>
				<g>
					<path class="st2" d="M-221.7,278.2l-0.8-4.9c12.2-2,24.6-2.5,36.9-1.6l-0.4,5C-197.9,275.8-209.9,276.3-221.7,278.2z"/>
				</g>
			</g>
			<g>
				<g>
					<path class="st2" d="M-214.6,102.2c-5.8-3.5-12.7-5.1-19.4-4.5l-0.4-5c7.8-0.7,15.8,1.2,22.4,5.2L-214.6,102.2z"/>
				</g>
			</g>
			<g>
				<g>
					<path class="st2" d="M-158.6,310.9l-5-0.2c0.5-10.4,4.1-20.9,10.1-29.4l4.1,2.9C-154.9,291.9-158.2,301.4-158.6,310.9z"/>
				</g>
			</g>
		</g>
		<g>
			<g>
				<g>
					<path class="st19" d="M-154.4,177.1c0,1.5-1.2,2.7-2.7,2.7c-1.5,0-2.7-1.2-2.7-2.7c0-1.5,1.2-2.7,2.7-2.7
						C-155.6,174.5-154.4,175.7-154.4,177.1z"/>
				</g>
				<g>
					<path class="st19" d="M-211,250.6c0,1.8-1.5,3.3-3.3,3.3c-1.8,0-3.3-1.5-3.3-3.3c0-1.8,1.5-3.3,3.3-3.3
						C-212.5,247.3-211,248.8-211,250.6z"/>
				</g>
				<g>
					<circle class="st19" cx="-209.7" cy="283" r="1.6"/>
				</g>
				<g>
					<path class="st19" d="M-273,222.1c0,1.6-1.3,3-3,3c-1.6,0-3-1.3-3-3c0-1.6,1.3-3,3-3C-274.4,219.1-273,220.5-273,222.1z"/>
				</g>
				<g>
					<circle class="st19" cx="-239.2" cy="159.3" r="3.1"/>
				</g>
				<g>
					<path class="st19" d="M-228.4,161.4c0,1-0.8,1.7-1.7,1.7c-1,0-1.7-0.8-1.7-1.7c0-1,0.8-1.7,1.7-1.7
						C-229.2,159.7-228.4,160.4-228.4,161.4z"/>
				</g>
				<g>
					<path class="st19" d="M-206.6,139.5c0,1.2-0.9,2.1-2.1,2.1c-1.2,0-2.1-0.9-2.1-2.1c0-1.2,0.9-2.1,2.1-2.1
						C-207.6,137.4-206.6,138.4-206.6,139.5z"/>
				</g>
				<g>
					<path class="st19" d="M-220.5,109.6c0,1.2-0.9,2.1-2.1,2.1c-1.2,0-2.1-0.9-2.1-2.1c0-1.2,0.9-2.1,2.1-2.1
						C-221.4,107.5-220.5,108.5-220.5,109.6z"/>
				</g>
				<g>
					<path class="st19" d="M-230,110.1c0,1.4-1.2,2.6-2.6,2.6c-1.4,0-2.6-1.2-2.6-2.6c0-1.4,1.2-2.6,2.6-2.6
						C-231.1,107.5-230,108.7-230,110.1z"/>
				</g>
				<g>
					<path class="st19" d="M-307.8,179.4c0,1.2-1,2.2-2.2,2.2c-1.2,0-2.2-1-2.2-2.2c0-1.2,1-2.2,2.2-2.2
						C-308.8,177.1-307.8,178.1-307.8,179.4z"/>
				</g>
				<g>
					<path class="st19" d="M-255.9,262c0,2.4-2,4.4-4.4,4.4c-2.4,0-4.4-2-4.4-4.4c0-2.4,2-4.4,4.4-4.4
						C-257.8,257.6-255.9,259.6-255.9,262z"/>
				</g>
				<g>
					<path class="st19" d="M-199,107.5c0,1.5-1.3,2.8-2.8,2.8c-1.5,0-2.8-1.3-2.8-2.8c0-1.5,1.3-2.8,2.8-2.8
						C-200.3,104.7-199,106-199,107.5z"/>
				</g>
				<g>
					<circle class="st19" cx="-251.4" cy="291" r="1"/>
				</g>
				<g>
					<circle class="st19" cx="-151.1" cy="132.3" r="3.3"/>
				</g>
				<g>
					<path class="st19" d="M-182.1,164.2c0,1.6-1.3,2.8-2.8,2.8c-1.6,0-2.8-1.3-2.8-2.8c0-1.6,1.3-2.8,2.8-2.8
						C-183.4,161.4-182.1,162.6-182.1,164.2z"/>
				</g>
				<g>
					<circle class="st19" cx="-177.8" cy="160.4" r="1"/>
				</g>
				<g>
					<circle class="st19" cx="-282.5" cy="172.6" r="2.3"/>
				</g>
				<g>
					<path class="st19" d="M-135.4,264.2c0,0.8-0.7,1.5-1.5,1.5c-0.8,0-1.5-0.7-1.5-1.5c0-0.8,0.7-1.5,1.5-1.5
						C-136.1,262.6-135.4,263.3-135.4,264.2z"/>
				</g>
			</g>
			<g>
				<g>
					<path class="st20" d="M-280.5,205.4c-1,1.2-1.9,1.2-2.9,2.4c-0.6-1.2-1.1-2.3-1.7-3.5C-283.9,204.4-281.7,205.1-280.5,205.4z"
						/>
				</g>
				<g>
					<path class="st20" d="M-282.3,167.9c-1.1,0-1.5-0.5-2.6-0.5c0.4-2,0.8-3.9,1.2-5.9c0.9,0.2,2.2,0.1,3.1,0.3
						C-281.2,164.1-281.8,165.7-282.3,167.9z"/>
				</g>
				<g>
					<path class="st20" d="M-261.9,144c-1-0.3-2.3-0.9-3.3-1.2c-0.9,1-1.7,2-2.6,3.1c0.6,1.6,2.2,2.5,2.8,4
						C-264.1,147.9-262.9,146-261.9,144z"/>
				</g>
				<g>
					<path class="st20" d="M-292.8,185.1c-2.1,0.7-3.8,1-5.9,1.7c0.9,0.6,1.7,1.3,2.6,1.9C-295.1,187.6-293.7,186.1-292.8,185.1z"/>
				</g>
				<g>
					<path class="st20" d="M-201,246.9c-1.3-0.9-1.4-1.7-2.7-2.6c1.1-0.7,2.2-1.4,3.3-2.1C-200.5,243.4-200.9,245.7-201,246.9z"/>
				</g>
				<g>
					<path class="st20" d="M-150.3,267.8c-0.1-1.1,0.3-1.6,0.1-2.7c2,0.1,4,0.3,6,0.4c0,1,0.1,2.2,0.1,3.1
						C-146.4,268.4-148.1,268.1-150.3,267.8z"/>
				</g>
				<g>
					<path class="st20" d="M-215.5,232.3c-0.1-1.1,0.3-1.6,0.1-2.7c2,0.1,4,0.3,6,0.4c0,1,0.1,2.2,0.1,3.1
						C-211.5,232.9-213.2,232.6-215.5,232.3z"/>
				</g>
				<g>
					<path class="st20" d="M-143.6,193.9c-0.1-1.1,0.3-1.6,0.1-2.7c2,0.1,4,0.3,6,0.4c0,1,0.1,2.2,0.1,3.1
						C-139.6,194.5-141.3,194.2-143.6,193.9z"/>
				</g>
				<g>
					<path class="st20" d="M-189.6,297.5c0.2-1.1,0.6-2.4,0.8-3.4c-1.1-0.7-2.2-1.5-3.4-2.2c-1.5,0.7-2.1,2.5-3.6,3.3
						C-193.7,295.8-191.6,296.8-189.6,297.5z"/>
				</g>
				<g>
					<path class="st20" d="M-254.4,254.8c0.2-1.1,0.6-2.4,0.8-3.4c-1.1-0.7-2.2-1.5-3.4-2.2c-1.5,0.7-2.1,2.5-3.6,3.3
						C-258.5,253.2-256.5,254.1-254.4,254.8z"/>
				</g>
				<g>
					<path class="st20" d="M-181.2,243c-0.9-2-1.5-3.6-2.4-5.6c-0.5,0.9-1,1.9-1.5,2.8C-184,240.9-182.4,242.2-181.2,243z"/>
				</g>
				<g>
					<path class="st20" d="M-189.4,162.8c0.5-1,1.2-2.1,1.7-3.1c-0.9-1-1.8-2-2.7-3c-1.6,0.3-2.7,1.9-4.4,2.2
						C-193,160.1-191.3,161.6-189.4,162.8z"/>
				</g>
				<g>
					<path class="st20" d="M-246.4,193.6c1-1.2,1.9-1.2,2.9-2.3c0.6,1.2,1.1,2.3,1.7,3.5C-243,194.6-245.2,193.9-246.4,193.6z"/>
				</g>
				<g>
					<path class="st20" d="M-247.5,226.6c1.1,0,1.5,0.5,2.6,0.5c-0.4,2-0.8,3.9-1.2,5.9c-0.9-0.2-2.2-0.2-3.1-0.3
						C-248.6,230.5-248.1,228.8-247.5,226.6z"/>
				</g>
				<g>
					<path class="st20" d="M-264.2,191.7c1,0.3,2.3,0.9,3.3,1.3c0.9-1,1.7-2,2.6-3.1c-0.5-1.6-2.2-2.5-2.8-4
						C-262.1,187.8-263.3,189.7-264.2,191.7z"/>
				</g>
				<g>
					<path class="st20" d="M-247,168c1,0.3,2.3,0.9,3.3,1.3c0.9-1,1.7-2,2.6-3.1c-0.5-1.6-2.2-2.5-2.8-4
						C-244.9,164.1-246.1,166-247,168z"/>
				</g>
				<g>
					<path class="st20" d="M-237.9,226.7c2.1-0.7,3.8-1,5.9-1.7c-0.9-0.6-1.7-1.3-2.6-1.9C-235.5,224.2-237,225.7-237.9,226.7z"/>
				</g>
				<g>
					<path class="st20" d="M-129,241.8c-1.3-0.9-1.4-1.7-2.7-2.6c1.1-0.7,2.2-1.4,3.3-2.1C-128.5,238.3-128.9,240.6-129,241.8z"/>
				</g>
				<g>
					<path class="st20" d="M-172.7,216.3c-0.1-1.1,0.3-1.6,0.1-2.7c2,0.1,4,0.3,6,0.4c0,1,0.1,2.2,0.1,3.1
						C-168.7,216.9-170.5,216.6-172.7,216.3z"/>
				</g>
				<g>
					<path class="st20" d="M-199.8,211.2c0.2-1.1,0.6-2.4,0.8-3.4c-1.1-0.7-2.2-1.5-3.4-2.2c-1.5,0.7-2.1,2.5-3.6,3.3
						C-204,209.5-201.9,210.5-199.8,211.2z"/>
				</g>
				<g>
					<path class="st20" d="M-167.3,200c-0.9-2-1.5-3.6-2.4-5.6c-0.5,0.9-1,1.9-1.5,2.8C-170,198-168.4,199.2-167.3,200z"/>
				</g>
				<g>
					<path class="st20" d="M-150,167.8c0.5-1,1.2-2.1,1.7-3.1c-0.9-1-1.8-2-2.7-3c-1.6,0.3-2.7,1.9-4.4,2.2
						C-153.6,165.1-151.9,166.6-150,167.8z"/>
				</g>
				<g>
					<path class="st20" d="M-218.6,166.8c1-1.2,1.9-1.2,2.9-2.3c0.6,1.2,1.1,2.3,1.7,3.5C-215.1,167.8-217.4,167-218.6,166.8z"/>
				</g>
				<g>
					<path class="st20" d="M-217.5,182.7c1.1,0,1.5,0.5,2.6,0.5c-0.4,2-0.8,3.9-1.2,5.9c-0.9-0.2-2.2-0.2-3.1-0.3
						C-218.6,186.6-218,184.9-217.5,182.7z"/>
				</g>
				<g>
					<path class="st20" d="M-231.9,121.4c1,0.3,2.3,0.9,3.3,1.3c0.9-1,1.7-2,2.6-3.1c-0.5-1.6-2.2-2.5-2.8-4
						C-229.8,117.5-231,119.4-231.9,121.4z"/>
				</g>
				<g>
					<path class="st20" d="M-213.3,196.3c2.1-0.7,3.8-1,5.9-1.7c-0.9-0.6-1.7-1.3-2.6-1.9C-210.9,193.8-212.4,195.3-213.3,196.3z"/>
				</g>
				<g>
					<path class="st20" d="M-266,286.7c2.1-0.7,3.8-1,5.9-1.7c-0.9-0.6-1.7-1.3-2.6-1.9C-263.6,284.2-265.1,285.7-266,286.7z"/>
				</g>
			</g>
		</g>
	</g>
</g>
<circle class="st0" cx="199.8" cy="201.2" r="190.2"/>
<g>
	<g class="st1">
		<ellipse transform="matrix(0.7071 -0.7071 0.7071 0.7071 -92.3129 203.904)" cx="200" cy="213.4" rx="161.8" ry="161.8"/>
	</g>
	<g>
		
			<ellipse transform="matrix(0.7071 -0.7071 0.7071 0.7071 -80.3882 198.9646)" class="st2" cx="200" cy="196.5" rx="161.8" ry="161.8"/>
	</g>
	<g>
		
			<ellipse transform="matrix(0.7071 -0.7071 0.7071 0.7071 -80.3882 198.9646)" class="st3" cx="200" cy="196.5" rx="144.9" ry="144.9"/>
	</g>
	<g>
		<g>
			<path class="st2" d="M200,332.8c-75.2,0-136.3-61.1-136.3-136.3c0-32.2,11.4-63.5,32.2-88c0.9-1.1,2.5-1.2,3.6-0.3
				c1.1,0.9,1.2,2.5,0.3,3.6c-20,23.6-31,53.7-31,84.7c0,72.3,58.8,131.2,131.2,131.2c27.3,0,53.5-8.3,75.7-24
				c1.2-0.8,2.8-0.5,3.6,0.6c0.8,1.2,0.5,2.8-0.6,3.6C255.5,324.2,228.3,332.8,200,332.8z"/>
		</g>
		<g>
			<path class="st2" d="M307.6,278.5c-0.5,0-1.1-0.2-1.5-0.5c-1.1-0.8-1.4-2.5-0.5-3.6c16.7-22.7,25.6-49.6,25.6-77.9
				c0-72.3-58.8-131.2-131.2-131.2c-28.8,0-56.1,9.1-79,26.4c-1.1,0.9-2.7,0.6-3.6-0.5c-0.9-1.1-0.6-2.7,0.5-3.6
				c23.8-18,52.2-27.5,82.1-27.5c75.2,0,136.3,61.1,136.3,136.3c0,29.4-9.2,57.4-26.6,80.9C309.2,278.1,308.4,278.5,307.6,278.5z"/>
		</g>
	</g>
</g>
<path class="st10" d="M196.1,179.3c0.6-0.8,1.4-1.1,2.3-1.3c3.4-0.9,6.8-1.8,10.1-2.9c7.6-2.6,12.6-7.8,15.1-15.4
	c1.1-3.2,1.9-6.5,2.8-9.7c0.1-0.2,0.1-0.5,0.2-0.7c0.2-1,0.8-1.5,1.8-1.5c1,0,1.6,0.6,1.9,1.6c0.6,2.5,1.2,5.1,2,7.6
	c1.1,3.9,2.7,7.5,5.3,10.7c3.4,4.2,8,6.6,13,8.2c2.6,0.8,5.3,1.4,8,2.2c0.2,0.1,0.4,0.1,0.6,0.1c1,0.2,1.6,0.8,1.6,1.8
	c0,1-0.6,1.6-1.6,1.8c-2.7,0.7-5.4,1.4-8.1,2.1c-9.9,2.7-16.1,9.2-18.7,19.1c-0.7,2.4-1.3,4.9-1.9,7.3c-0.3,1.3-0.8,1.8-1.8,1.8
	c-1,0-1.6-0.5-1.9-1.9c-0.8-3.1-1.6-6.3-2.6-9.3c-2.7-8.6-8.5-14.1-17.1-16.8c-2.8-0.9-5.7-1.6-8.5-2.3c-0.9-0.2-1.7-0.5-2.2-1.4
	C196.1,180.1,196.1,179.7,196.1,179.3z"/>
<path class="st10" d="M302.7,164.3c-0.5,0.3-1,0.6-1.5,0.8c-0.6,0.2-1.2,0.3-1.7,0.5c-4.6,1.3-7.5,4.2-8.7,8.8
	c-0.2,0.7-0.3,1.4-0.6,2c-0.2,0.5-0.7,1-1.2,1.1c-0.7,0.2-1.1-0.4-1.2-1c-0.2-0.9-0.5-1.7-0.7-2.6c-1.3-4.2-4-6.9-8.1-8.2
	c-0.8-0.2-1.6-0.5-2.5-0.7c-0.7-0.2-1.2-0.5-1.2-1.3c0-0.8,0.5-1.1,1.2-1.3c1.1-0.3,2.1-0.6,3.1-1c3.6-1.2,6-3.7,7.2-7.3
	c0.3-1,0.6-2,0.9-3.1c0.2-0.7,0.5-1.2,1.3-1.2c0.8,0,1.1,0.5,1.3,1.2c0.2,0.9,0.5,1.8,0.8,2.8c1.3,3.9,3.8,6.5,7.7,7.7
	c0.9,0.3,1.8,0.5,2.6,0.8c0.5,0.2,0.9,0.6,1.4,0.9C302.7,163.8,302.7,164.1,302.7,164.3z"/>
<path class="st10" d="M276,124.1c-0.5,0.3-0.9,0.8-1.4,1c-1.4,0.4-2.9,0.7-4.3,1.1c-6.6,1.7-10.8,5.9-12.6,12.6
	c-0.4,1.4-0.7,2.9-1.1,4.3c-0.2,0.7-0.5,1.3-1.3,1.3c-0.8,0-1-0.6-1.2-1.2c-0.5-2.1-1.1-4.1-1.7-6.1c-1.7-5.3-5.4-8.7-10.6-10.3
	c-1.8-0.6-3.7-1-5.5-1.5c-0.7-0.2-1.3-0.4-1.4-1.2c0-0.9,0.6-1.2,1.4-1.3c1.8-0.4,3.6-0.9,5.3-1.5c5.7-1.7,9.4-5.4,11.1-11.1
	c0.5-1.7,1-3.5,1.4-5.2c0.2-0.7,0.4-1.4,1.3-1.4c1,0,1.1,0.7,1.3,1.5c0.4,1.7,0.9,3.4,1.4,5.1c1.7,5.7,5.4,9.4,11.1,11.1
	c1.8,0.6,3.7,1,5.5,1.5c0.5,0.2,0.9,0.6,1.4,1C276,123.7,276,123.9,276,124.1z"/>
</svg>
