<?xml version="1.0" encoding="utf-8"?>
<!-- Generator: Adobe Illustrator 22.0.0, SVG Export Plug-In . SVG Version: 6.00 Build 0)  -->
<svg version="1.1" id="Layer_1" xmlns="http://www.w3.org/2000/svg" xmlns:xlink="http://www.w3.org/1999/xlink" x="0px" y="0px"
	 viewBox="0 0 300 300" style="enable-background:new 0 0 300 300;" xml:space="preserve">
<style type="text/css">
	.st0{fill:#898989;}
</style>
<g>
	<path class="st0" d="M63.9,119.1c5.3,0,9.8-0.1,14.3,0c5.4,0.2,7,2.7,4,7.1c-8.9,13.1-18,26.1-27.3,38.9c-3,4.2-7,4.1-10.1-0.2
		c-9.1-12.7-18.1-25.5-27-38.4c-3.1-4.6-1.5-7.2,4.2-7.5c5.6-0.2,12.6,1.6,16.5-1.1c3.6-2.5,3.7-9.9,5.6-14.9
		c18.7-48.9,68.2-80.7,118.4-76.4c55.6,4.8,99,43.1,109.2,96.3c13,67.9-35.5,133.1-104,140.1c-32.4,3.3-61.1-5.5-86.8-25.1
		c-1.2-0.9-2.4-2-3.5-3.1c-6.3-5.8-7.2-12.6-2.5-18.1c4.4-5.1,12.1-5,18.3,0.2c14.6,12.3,31.2,19.8,50.2,22.2
		c47.1,5.9,91.7-24.4,103.6-70.4c14.3-55.5-24-111.3-81.1-117.8c-43.7-5-84.9,20.4-100,61.7C65.3,114.5,64.8,116.4,63.9,119.1z"/>
	<path class="st0" d="M167,133.2c14.3,0,27.6,0,40.9,0c8.7,0,13.8,4.3,13.9,11.6c0.1,7.7-4.8,12.1-13.9,12.1c-17.2,0-34.5,0-51.7,0
		c-8.4,0-12.9-4.2-12.9-12.5c-0.1-20.6-0.1-41.1,0-61.7c0.1-9.4,8-15,16.3-11.7c5.8,2.3,7.3,7.2,7.3,12.8c0,14.1,0,28.2,0,42.3
		C167,128.2,167,130.3,167,133.2z"/>
</g>
</svg>
