<?xml version="1.0" encoding="utf-8"?>
<!-- Generator: Adobe Illustrator 22.0.0, SVG Export Plug-In . SVG Version: 6.00 Build 0)  -->
<svg version="1.1" id="Layer_1" xmlns="http://www.w3.org/2000/svg" xmlns:xlink="http://www.w3.org/1999/xlink" x="0px" y="0px"
	 viewBox="0 0 300 300" style="enable-background:new 0 0 300 300;" xml:space="preserve">
<style type="text/css">
	.st0{fill:#FD9F13;}
</style>
<g>
	<g>
		<path class="st0" d="M237.7,152.2v106.4c0,3.6-2.9,6.6-6.6,6.6h-36.6h-17.5v-71.8h-54.5v71.8h-14.4H68.6c-3.6,0-6.6-2.9-6.6-6.6
			V152.2"/>
		<path class="st0" d="M231.1,274.8h-54c-5.3,0-9.6-4.3-9.6-9.6V203h-35.2v62.2c0,5.3-4.3,9.6-9.6,9.6h-54
			c-8.9,0-16.2-7.3-16.2-16.2V152.2c0-5.3,4.3-9.6,9.6-9.6s9.6,4.3,9.6,9.6v103.4H113v-62.2c0-5.3,4.3-9.6,9.6-9.6h54.5
			c5.3,0,9.6,4.3,9.6,9.6v62.2h41.4V152.2c0-5.3,4.3-9.6,9.6-9.6s9.6,4.3,9.6,9.6v106.4C247.3,267.5,240.1,274.8,231.1,274.8z"/>
	</g>
	<g>
		<path class="st0" d="M62,152.2H20.4L143,29.5c3.8-3.8,9.9-3.8,13.7,0l122.7,122.7l-41.7,0"/>
		<path class="st0" d="M279.4,161.8h-41.7c-5.3,0-9.6-4.3-9.6-9.6s4.3-9.6,9.6-9.6h18.5L149.9,36.3L43.6,142.6H62
			c5.3,0,9.6,4.3,9.6,9.6s-4.3,9.6-9.6,9.6H20.4c-3.9,0-7.4-2.3-8.9-5.9c-1.5-3.6-0.7-7.7,2.1-10.5L136.2,22.7
			c3.6-3.6,8.5-5.6,13.6-5.6c5.2,0,10,2,13.6,5.6l122.7,122.7c2.7,2.7,3.6,6.9,2.1,10.5C286.8,159.5,283.3,161.8,279.4,161.8z"/>
	</g>
</g>
</svg>
