<?xml version="1.0" encoding="utf-8"?>
<!-- Generator: Adobe Illustrator 22.0.0, SVG Export Plug-In . SVG Version: 6.00 Build 0)  -->
<svg version="1.1" id="Layer_1" xmlns="http://www.w3.org/2000/svg" xmlns:xlink="http://www.w3.org/1999/xlink" x="0px" y="0px"
	 viewBox="0 0 300 300" style="enable-background:new 0 0 300 300;" xml:space="preserve">
<style type="text/css">
	.st0{fill:#898989;}
</style>
<g>
	<path class="st0" d="M231,274.1h-53.5c-5.3,0-9.5-4.3-9.5-9.5V203h-34.9v61.6c0,5.3-4.3,9.5-9.5,9.5H70.1c-8.8,0-16-7.2-16-16
		V152.8c0-5.3,4.3-9.5,9.5-9.5s9.5,4.3,9.5,9.5v102.3h40.9v-61.6c0-5.3,4.3-9.5,9.5-9.5h53.9c5.3,0,9.5,4.3,9.5,9.5v61.6H228V152.8
		c0-5.3,4.3-9.5,9.5-9.5c5.3,0,9.5,4.3,9.5,9.5v105.4C247,267,239.9,274.1,231,274.1z"/>
	<path class="st0" d="M278.8,162.3h-41.3c-5.3,0-9.5-4.3-9.5-9.5c0-5.3,4.3-9.5,9.5-9.5h18.3L150.6,38L45.3,143.2h18.3
		c5.3,0,9.5,4.3,9.5,9.5c0,5.3-4.3,9.5-9.5,9.5H22.4c-3.9,0-7.3-2.3-8.8-5.9c-1.5-3.6-0.7-7.7,2.1-10.4L137.1,24.6
		c3.6-3.6,8.4-5.6,13.5-5.6c5.1,0,9.9,2,13.5,5.6L285.5,146c2.7,2.7,3.5,6.8,2.1,10.4C286.1,160,282.7,162.3,278.8,162.3z"/>
</g>
</svg>
