<?xml version="1.0" encoding="utf-8"?>
<!-- Generator: Adobe Illustrator 22.0.0, SVG Export Plug-In . SVG Version: 6.00 Build 0)  -->
<svg version="1.1" id="Layer_1" xmlns="http://www.w3.org/2000/svg" xmlns:xlink="http://www.w3.org/1999/xlink" x="0px" y="0px"
	 viewBox="0 0 300 300" style="enable-background:new 0 0 300 300;" xml:space="preserve">
<style type="text/css">
	.st0{fill:#FD9F13;}
</style>
<g>
	<g>
		<circle class="st0" cx="149.6" cy="79.6" r="49.1"/>
		<path class="st0" d="M149.6,138.2c-32.3,0-58.6-26.3-58.6-58.6c0-32.3,26.3-58.6,58.6-58.6s58.6,26.3,58.6,58.6
			C208.2,111.9,181.9,138.2,149.6,138.2z M149.6,40c-21.9,0-39.6,17.8-39.6,39.6c0,21.9,17.8,39.6,39.6,39.6s39.6-17.8,39.6-39.6
			C189.2,57.8,171.4,40,149.6,40z"/>
	</g>
	<g>
		<path class="st0" d="M54.7,265.5v-67.3c0-23.3,17.3-42.4,38.4-42.4h113c21.1,0,38.4,19.1,38.4,42.4v67.3H54.7z"/>
		<path class="st0" d="M253.9,275H45.2v-76.8c0-28.6,21.5-51.9,47.9-51.9h113c26.4,0,47.9,23.3,47.9,51.9V275z M64.2,256h170.8
			v-57.8c0-18.1-12.9-32.9-28.9-32.9h-113c-15.9,0-28.9,14.7-28.9,32.9V256z"/>
	</g>
</g>
</svg>
