<?xml version="1.0" encoding="utf-8"?>
<!-- Generator: Adobe Illustrator 22.0.0, SVG Export Plug-In . SVG Version: 6.00 Build 0)  -->
<svg version="1.1" id="Layer_1" xmlns="http://www.w3.org/2000/svg" xmlns:xlink="http://www.w3.org/1999/xlink" x="0px" y="0px"
	 viewBox="0 0 300 300" style="enable-background:new 0 0 300 300;" xml:space="preserve">
<style type="text/css">
	.st0{fill:#898989;}
</style>
<g>
	<path class="st0" d="M149.5,140.1c-32.4,0-58.7-26.3-58.7-58.7c0-32.4,26.3-58.7,58.7-58.7s58.7,26.3,58.7,58.7
		C208.2,113.8,181.9,140.1,149.5,140.1z M149.5,41.8c-21.9,0-39.7,17.8-39.7,39.7c0,21.9,17.8,39.7,39.7,39.7s39.7-17.8,39.7-39.7
		C189.2,59.6,171.4,41.8,149.5,41.8z"/>
	<path class="st0" d="M244.5,277H54.5c-5.2,0-9.5-4.3-9.5-9.5v-67.4c0-28.6,21.5-51.9,47.9-51.9h113.1c26.4,0,47.9,23.3,47.9,51.9
		v67.4C254,272.7,249.7,277,244.5,277z M64,258H235v-57.9c0-18.1-13-32.9-28.9-32.9H92.9C77,167.2,64,182,64,200.1V258z"/>
</g>
</svg>
